#!OML:ASF H:\Dans Jumps\Project 1\Capture day 1\Session 1\subject.ASF
:FULLY-SPECIFIED
:DEGREES
204
root 0.476067 17.2198 -14.6781 8.38828 0.0464256 -2.2625
lowerback 2.43734 -0.559154 0.169647
upperback 4.8515 -0.797924 1.84251
thorax 3.65072 -0.430533 1.79681
lowerneck -12.0888 0.541223 -2.04529
upperneck 27.0137 1.0935 0.538556
head 10.6428 0.351687 0.680336
rclavicle 6.90777e-015 -3.37934e-015
rhumerus -19.6294 -17.8942 -79.8854
rradius 24.4151
rwrist 32.7447
rhand -18.7767 -26.0585
rfingers 7.12502
rthumb 7.52067 -55.9048
lclavicle 6.90777e-015 -3.37934e-015
lhumerus -19.0279 0.566076 86.2582
lradius 19.1613
lwrist 2.51103
lhand -23.8782 -2.7919
lfingers 7.12502
lthumb 2.59498 27.1721
rfemur -22.7768 -2.33691 19.6318
rtibia 31.6413
rfoot -16.517 -3.40429
rtoes 1.74019
lfemur -23.6692 9.04677 -17.6433
ltibia 31.3333
lfoot -14.3215 5.30542
ltoes -14.814
205
root 0.476976 17.2058 -14.6948 8.56072 0.0325054 -2.2411
lowerback 2.60672 -0.551235 0.15844
upperback 4.87856 -0.785398 1.8351
thorax 3.58308 -0.42445 1.79709
lowerneck -12.119 0.542881 -2.04882
upperneck 26.6456 1.09761 0.529395
head 10.5123 0.355587 0.675814
rclavicle 2.93207e-015 -1.8487e-014
rhumerus -19.7341 -18.0391 -79.7269
rradius 24.3165
rwrist 32.811
rhand -18.7774 -26.0257
rfingers 7.12502
rthumb 7.52005 -55.872
lclavicle 2.93207e-015 -1.8487e-014
lhumerus -19.1778 0.658695 86.1552
lradius 19.1945
lwrist 2.65906
lhand -23.8754 -2.70349
lfingers 7.12502
lthumb 2.5977 27.2604
rfemur -23.2713 -2.31606 19.6115
rtibia 32.0936
rfoot -16.6797 -3.4572
rtoes 1.69364
lfemur -24.1679 9.11252 -17.7206
ltibia 31.7804
lfoot -14.4622 5.34493
ltoes -14.8336
206
root 0.478122 17.191 -14.712 8.73935 0.0187297 -2.22553
lowerback 2.78471 -0.542516 0.156773
upperback 4.90543 -0.771779 1.8304
thorax 3.51034 -0.417518 1.79487
lowerneck -12.1564 0.54079 -2.06735
upperneck 26.2857 1.09731 0.530699
head 10.3871 0.35715 0.677171
rclavicle -3.03147e-015 1.45113e-014
rhumerus -19.8568 -18.1874 -79.5553
rradius 24.2151
rwrist 32.9031
rhand -18.7919 -25.9661
rfingers 7.12502
rthumb 7.506 -55.813
lclavicle -3.03147e-015 1.45113e-014
lhumerus -19.3332 0.75225 86.0545
lradius 19.2196
lwrist 2.80043
lhand -23.8739 -2.61656
lfingers 7.12502
lthumb 2.59912 27.3473
rfemur -23.7798 -2.29605 19.5963
rtibia 32.5597
rfoot -16.8555 -3.50905
rtoes 1.66006
lfemur -24.6839 9.17569 -17.7937
ltibia 32.2458
lfoot -14.6116 5.39281
ltoes -14.8501
207
root 0.479517 17.1751 -14.7296 8.92736 0.00550842 -2.21229
lowerback 2.96949 -0.532944 0.160261
upperback 4.93066 -0.756954 1.82818
thorax 3.43206 -0.409826 1.79232
lowerneck -12.2062 0.537575 -2.09261
upperneck 25.9367 1.09629 0.536226
head 10.2689 0.358134 0.681235
rclavicle 9.44227e-015 6.36111e-015
rhumerus -19.9969 -18.3311 -79.3716
rradius 24.1165
rwrist 33.0104
rhand -18.8117 -25.8966
rfingers 7.12502
rthumb 7.48694 -55.7441
lclavicle 9.44227e-015 6.36111e-015
lhumerus -19.4965 0.839602 85.9571
lradius 19.2364
lwrist 2.92595
lhand -23.883 -2.53808
lfingers 7.12502
lthumb 2.59039 27.4259
rfemur -24.3072 -2.27757 19.5824
rtibia 33.0412
rfoot -17.044 -3.56042
rtoes 1.62638
lfemur -25.2228 9.23534 -17.8668
ltibia 32.7329
lfoot -14.7733 5.44786
ltoes -14.8716
208
root 0.481031 17.1583 -14.7477 9.12539 -0.00352118 -2.21007
lowerback 3.15834 -0.522938 0.177864
upperback 4.95622 -0.741493 1.83053
thorax 3.35178 -0.401411 1.78656
lowerneck -12.2709 0.532894 -2.12402
upperneck 25.5965 1.09428 0.545016
head 10.1576 0.358397 0.687517
rclavicle 5.2181e-015 -1.5704e-014
rhumerus -20.1497 -18.4702 -79.1798
rradius 24.0268
rwrist 33.12
rhand -18.8218 -25.8438
rfingers 7.12502
rthumb 7.47719 -55.6916
lclavicle 5.2181e-015 -1.5704e-014
lhumerus -19.6547 0.919299 85.8631
lradius 19.2324
lwrist 3.02694
lhand -23.8904 -2.45823
lfingers 7.12502
lthumb 2.58318 27.5059
rfemur -24.8542 -2.25807 19.5797
rtibia 33.5377
rfoot -17.2423 -3.61245
rtoes 1.59087
lfemur -25.7869 9.29174 -17.9296
ltibia 33.2429
lfoot -14.9456 5.50756
ltoes -14.9077
209
root 0.482681 17.1405 -14.766 9.33139 -0.00616862 -2.21196
lowerback 3.35109 -0.513773 0.200541
upperback 4.98215 -0.72709 1.83757
thorax 3.26984 -0.393447 1.78278
lowerneck -12.3516 0.52885 -2.15413
upperneck 25.2672 1.09523 0.546861
head 10.0538 0.359296 0.691647
rclavicle 3.62782e-015 1.17283e-014
rhumerus -20.3085 -18.6099 -78.9768
rradius 23.9346
rwrist 33.2308
rhand -18.8123 -25.8196
rfingers 7.12502
rthumb 7.48638 -55.6671
lclavicle 3.62782e-015 1.17283e-014
lhumerus -19.8114 1.004 85.7734
lradius 19.2093
lwrist 3.08881
lhand -23.9059 -2.40653
lfingers 7.12502
lthumb 2.56825 27.5578
rfemur -25.4183 -2.24262 19.5811
rtibia 34.0491
rfoot -17.447 -3.66632
rtoes 1.5423
lfemur -26.3714 9.34786 -17.9902
ltibia 33.7722
lfoot -15.1315 5.56803
ltoes -14.9672
210
root 0.48446 17.1219 -14.7842 9.5444 -0.00230693 -2.21611
lowerback 3.54313 -0.5062 0.227377
upperback 5.01101 -0.71477 1.84731
thorax 3.19146 -0.386464 1.7794
lowerneck -12.4521 0.525127 -2.19275
upperneck 24.9521 1.09717 0.556808
head 9.95945 0.360673 0.700383
rclavicle -9.93923e-016 1.88845e-014
rhumerus -20.4717 -18.7456 -78.7693
rradius 23.844
rwrist 33.3378
rhand -18.7928 -25.8182
rfingers 7.12502
rthumb 7.50513 -55.665
lclavicle -9.93923e-016 1.88845e-014
lhumerus -19.9595 1.08907 85.6861
lradius 19.1612
lwrist 3.1155
lhand -23.9302 -2.3828
lfingers 7.12502
lthumb 2.54481 27.5818
rfemur -25.9965 -2.2347 19.5853
rtibia 34.573
rfoot -17.6539 -3.72262
rtoes 1.4832
lfemur -26.9716 9.40513 -18.0504
ltibia 34.3157
lfoot -15.3313 5.62715
ltoes -15.0474
211
root 0.486176 17.1026 -14.8022 9.76191 0.00799493 -2.21943
lowerback 3.73712 -0.500227 0.250945
upperback 5.04257 -0.704608 1.86116
thorax 3.11509 -0.380779 1.78208
lowerneck -12.561 0.519607 -2.24232
upperneck 24.6395 1.09841 0.570832
head 9.86795 0.36122 0.712356
rclavicle 1.2275e-014 -1.0138e-014
rhumerus -20.6402 -18.871 -78.5556
rradius 23.7576
rwrist 33.4263
rhand -18.7632 -25.8366
rfingers 7.12502
rthumb 7.5337 -55.6825
lclavicle 1.2275e-014 -1.0138e-014
lhumerus -20.1013 1.19015 85.6
lradius 19.0969
lwrist 3.10065
lhand -23.9373 -2.34315
lfingers 7.12502
lthumb 2.5379 27.6215
rfemur -26.5864 -2.2345 19.5907
rtibia 35.1086
rfoot -17.8577 -3.78746
rtoes 1.41735
lfemur -27.5819 9.46406 -18.1126
ltibia 34.867
lfoot -15.5392 5.68757
ltoes -15.1737
